<?xml version="1.0" encoding="UTF-8"?>
<svg id="Layer_2" data-name="Layer 2" xmlns="http://www.w3.org/2000/svg" viewBox="0 0 2242.4 583.16">
  <defs>
    <style>
      .cls-1 {
        fill: #c3a363;
      }
    </style>
  </defs>
  <g id="Layer_1" data-name="Layer 1">
    <path class="cls-1" d="M2233.04,99.5c-6.1-5.43-13.65-8.19-22.44-8.19-22.16,0-49.86,11.69-82.34,34.78-31.9,22.68-70.92,54.94-115.9,95.87-44.98,40.97-92.59,88.28-141.42,140.58-3.99,3.96-8.93,7.35-14.68,10.01-6.51,3.04-15.08,8.41-26.23,16.41-10.85,7.84-46.55,37.6-109.06,90.91l-2.85,2.52s-3.26,2.8-3.26,2.88c-62.18,54.94-105.53,82.83-128.86,82.83-10.5,0-11.96-4.94-11.96-10.26v-3.45c1.57-6.54,11.23-23.44,47.58-66.74l43.68-51.9,34.64-38.12c17.12-18.48,29.27-31.9,36.16-39.93,29.35-8.65,71.57-29.54,125.5-62.07,54.58-32.91,101-66.39,138-99.48,38.25-34.21,56.84-59.66,56.84-77.81,0-6.97-3.15-13.29-9.36-18.85-6.1-5.43-13.65-8.19-22.44-8.19-22.16,0-49.84,11.69-82.34,34.78-31.9,22.65-70.89,54.94-115.9,95.87-44.93,40.91-92.54,88.22-141.42,140.58-3.99,3.96-7.73,8.11-16.09,14.6-5.7,4.42-15.98,11.29-27.13,19.29-10.72,7.73-45.09,30.87-106.7,83.5l-2.88,2.44c-36.54,31.42-68.83,53.88-95.95,66.82-26.91,12.83-47.83,19.34-62.18,19.34-6,0-11.07-1.9-15.57-5.75-4.29-3.69-4.8-7.57-4.8-11.56,0-6.7,3.34-22.6,38.12-57.43,33.99-3.91,67.88-13.02,95.96-28.59,29.76-16.55,44.22-32.31,44.22-48.21,0-4.99-2.25-9.39-6.54-12.75-4.04-3.15-8.9-4.75-14.43-4.75-26.15,0-61.12,14.38-106.89,43.98-31.63,20.51-52.47,42.27-62.26,65-8.38,6.81-29.14,16.08-52.58,16.65.96-.03,2.17-2.46,2.61-3.13,1.14-1.71,2.43-3.27,3.68-4.91,13.75-18.03,20.85-40.31,20.94-62.94,0-.45,0-.9,0-1.36-.15-18.43-1.67-36.84-1.67-55.28,0-6.76,1.47-12.07,4.45-16.31,3.26-4.58,10.85-11.75,22.65-21.3l2.74-2.22-6.86-11.45c-8.28,6.92-16.55,13.85-24.83,20.77-18.22,15.24-36.45,30.49-54.68,45.73-18.3,15.3-36.6,30.6-54.9,45.9-19.23,16.08-38.35,32.27-57.4,48.56-48.13,41.26-81.66,62.18-99.64,62.18-4.18,0-7.87-1.55-11.31-4.75-3.36-3.15-4.99-6.35-4.99-9.85,0-7.46,9.58-27.75,55.18-82.12,7.14-8.52,14.45-16.89,22.04-25.02,5.8-6.2,11.76-12.27,18-18.03,4.59-4.24,9.34-8.33,14.36-12.07,4.22-3.14,8.72-6.11,13.58-8.25,4.07-1.79,8.87-3.52,13.36-2.38,5.86,1.49,10.14,7.26,10.02,13.29-.12,5.82-3.95,11.59-8.48,15-.63.48-1.41,1.06-2.05,1.52-.19.14-1.12,1-1.37.99,6.87.17,13.78-3.38,17.53-9.19,2.62-4.07,3.74-9.32,3.49-14.1-.25-4.7-1.92-10.89-5.49-14.19-6.33-5.84-15.82-6.86-23.99-5.36-6.33,1.16-12.34,3.78-17.94,6.88-7.47,4.14-14.38,9.24-20.95,14.68-8.49,7.02-16.45,14.68-24.11,22.59-.4.42-2,1.61-2.07,2.15.6-4.67.9-8.65.9-12.07,0-10.93-3.5-19.8-10.36-26.34-6.84-6.51-14.49-9.79-22.76-9.79-10.77,0-21.95,3.23-33.21,9.63-10.96,6.21-27.89,18.83-51.73,38.55-43.24,35.7-84.81,74.52-130.84,106.64-19.29,13.46-35.05,20.29-46.85,20.29s-11.99-5.81-11.99-8.6c0-1.9,1.93-8.52,19.78-28.73l28.62-32.01c22.87-25.66,54.15-57.73,92.97-95.3l7.22-7h-54.75l-1.17,1.03c-16.14,14.43-32.04,28.84-47.26,42.86l-55.02,51.46c-19.64,18.77-41.67,36.3-65.49,52.09-23.3,15.46-41.13,23.33-52.96,23.33-3.58,0-6.59-1.14-9.14-3.5-2.47-2.22-3.66-4.56-3.66-7.13v-2.33c1.68-4.5,5.97-10.34,12.72-17.34l95.71-98.91c14.73-14.41,26.29-26.1,34.37-34.72l6.4-6.84h-37.34s-15.81,0-15.81,0l-1.49,1.74c-60.17,70.7-160.6,171.62-237.54,171.62-56.05,0-100.7-18.37-151.38-38.12,91.94-47.91,152.38-98.67,223.19-217.09,115.65-8.46,275.87-93.24,335.07-180.06,20.35-29.49,38.36-74.82,22.22-105.59-6.57-12.51-21.89-27.4-57.59-27.4-79.35,0-227.59,112.97-337.51,290.47-2.69,4.04-4.67,7.32-6.51,10.8l-.41.64c-96.63-.14-164.28-23.32-201.2-69.09-32.93-40.83-31.88-100.01,2.62-147.28,18.29-25.05,48.47-44.41,89.72-57.54,28.07-8.93,59.21-14.2,92.57-15.64,21.64-.95,43.76-.02,65.76,2.74,24.69,3.1,50.85,8.4,77.74,15.77l3.58-13.08c-27.51-7.53-54.3-12.97-79.63-16.14-22.75-2.85-45.63-3.8-68.04-2.83-34.55,1.5-66.88,6.98-96.09,16.27-44.05,14.02-76.54,35.03-96.56,62.47-38.17,52.3-39.06,118.12-2.22,163.79,38.46,47.68,106.67,72.54,203.04,74.08-75.93,118.81-124.1,161.25-197.1,203.97-4.61-1.87-9.22-3.74-13.83-5.62-63.73-25.96-129.65-52.77-196.6-52.77C14.46,462.57,0,499.17,0,521.01c0,39.5,48.18,62.15,132.17,62.15,73.98,0,139.82-14.24,201.22-43.57,52.79,21.21,104.88,43.57,167.11,43.57,41.59,0,88.67-26.82,133-62.77-4.53,9.54-6.85,18.88-6.85,27.93s2.9,17.12,8.57,22.82c5.67,5.67,12.48,8.55,20.21,8.55,27.21,0,73.06-29.03,139.36-88.41-18.31,22.25-27.26,41.62-27.26,58.76,0,9.44,2.79,17.12,8.3,22.79,5.53,5.72,12.13,8.6,19.62,8.6,9.09,0,21.54-4.12,38.03-12.59,16.2-8.3,48.56-33.56,98.97-77.24l39.36-32.45c26.29-21.43,45.44-35.81,56.97-42.81,11.01-6.65,21.16-10.01,30.17-10.01s12.43,3.72,12.43,12.42c0,10.39-10.06,33.88-57.89,86.79-11.04,12.2-22.49,24.1-34.78,35.05-8.83,7.87-18.15,15.43-28.45,21.31-6.57,3.75-13.99,7.62-21.8,7.63-6.33,0-12.59-3.03-15.36-8.92-3.91-8.32-.33-19.08,6.07-25.14,1.04-.98,2.17-1.87,3.38-2.62,3.15-1.95,7.83-3.14,11.27-4.15-1.95-2.5-5.32-3.51-8.7-3.46-2.2.03-4.33.8-6.32,1.75-11.23,5.42-20.68,18.05-19.96,30.89.66,11.74,9.43,20.45,20.61,23,13.83,3.16,28.22-1.87,40.27-8.42,9.9-5.4,27.1-18.58,52.39-40.15-1.22,5.75-1.85,10.93-1.85,15.57,0,11.42,3.74,20.02,11.15,25.58,7.05,5.26,14.57,7.95,22.38,7.95,10.01,0,23.57-4.53,41.53-13.89,8.63-4.5,16.66-10.17,24.51-15.89,14.69-10.7,28.55-22.34,42.49-33.91,14.48-12.03,28.96-24.06,43.44-36.09,14.48-12.03,28.96-24.06,43.44-36.09,14.48-12.03,28.96-24.06,43.44-36.09,6.3-5.23,12.6-10.47,18.9-15.7-3.41,57.82-31.82,113.49-75.78,151.21-10.05,8.62-21.23,16.52-34.1,19.6-10.21,2.45-22.65.87-28.53-7.83-3.6-5.34-3.93-12.52-1.55-18.51,2.39-5.98,7.25-10.78,12.92-13.85-.6.36-2.73-.21-3.46-.23-1.19-.04-2.4,0-3.58.11-2.09.18-4.06.68-5.99,1.49-11.4,4.82-16.71,18.34-14.3,30.08,1.89,9.19,8.63,16.65,17.42,19.81,20.72,7.45,42.62,1.07,61.93-7.31,19.31-8.37,38.1-18.94,53.57-33.37.43-.4.86-.82,1.28-1.24.16-.16.35-.33.54-.49,1.98.11,8.33.12,10.23.12,19.91,0,34.94-5.81,45.39-12.05-1.44,5.91-2.2,11.88-2.2,17.9,0,26.48,13.67,40.48,39.53,40.48,17.55,0,41.13-7.05,70.07-20.97,28.76-13.81,60.91-36.41,95.63-67.12l85.84-71.1c6.76-5.89,12.97-11.04,18.61-15.46-10.91,11.86-24.9,28.22-42.21,49.27-34.15,41.59-50.76,72.76-50.76,95.33,0,8.84,3.07,16.58,9.14,22.95,6.1,6.46,13.46,9.71,21.81,9.71,24.9,0,63.21-22.3,117.06-68.15l26.45-22.57,85.84-71.08c6.75-5.89,12.94-11.04,18.58-15.46-10.88,11.86-24.9,28.22-42.19,49.27-34.15,41.59-50.76,72.76-50.76,95.33,0,8.84,3.07,16.58,9.14,22.95,6.1,6.46,13.46,9.71,21.81,9.71,24.9,0,63.21-22.3,117.06-68.15l.95-.81c-3.07,8.52-4.64,17.15-4.64,25.88,0,26.48,13.67,40.48,39.55,40.48,17.53,0,41.13-7.05,70.07-20.97,28.76-13.84,60.93-36.41,95.66-67.17l3.23-2.85-8.76-8.76-2.85,2.44c-36.54,31.42-68.83,53.88-95.98,66.82-26.91,12.83-47.83,19.34-62.18,19.34-5.97,0-11.07-1.9-15.54-5.75-4.29-3.69-6.38-7.43-6.38-11.42,0-6.7,7.33-21.97,42.1-56.81,34.02-3.91,65.46-13.78,93.54-29.35,29.76-16.55,44.22-32.31,44.22-48.21,0-4.99-2.25-9.39-6.54-12.75-4.04-3.15-8.9-4.75-14.43-4.75-26.18,0-61.15,14.38-106.89,43.98-18.29,11.83-32.88,24.09-43.9,36.73l-.33-.32-2.88,2.55c-63.92,56.84-108.35,85.67-132.09,85.67-10.5,0-11.96-4.94-11.96-10.26v-3.45c1.57-6.54,11.23-23.47,47.58-66.74l43.68-51.9,34.67-38.12c17.15-18.53,29.3-31.96,36.14-39.93,29.35-8.65,71.57-29.54,125.5-62.07,54.58-32.93,101.03-66.39,138-99.48,38.25-34.21,56.84-59.66,56.84-77.81,0-6.97-3.15-13.32-9.36-18.85ZM1849.65,232.56c50.54-52.41,88.52-87.3,112.91-103.69,23.9-16.09,44.35-24.23,60.8-24.23,5.72,0,10.26,1.47,13.86,4.48,3.39,2.82,5.05,5.83,5.05,9.22,0,9.66-8.95,29.44-51.57,68.75-34.89,32.15-80.36,64.78-135.18,96.99-44.98,26.42-79.52,44.68-103.01,54.47,21.02-25.28,53.61-60.85,97.15-105.99ZM1443.97,443.16c18.23-14.16,36.35-20.18,45.2-24.69,8.52-4.34,16.3-6.54,23.17-6.54,5.07,0,5.48,1.85,5.48,4.23,0,4.48-3.55,12.72-20.46,26.48-14.19,11.56-32.26,21.13-53.71,28.51-14.27,4.88-36.38,11.48-44.87,13.13,14-16.71,30.41-29.65,45.2-41.13ZM581.62,299.31C664.5,155.31,794.2,14.92,872.74,14.92c17.58,0,29.62,5.91,35.81,17.61,10.88,20.59,2.44,58.49-20.54,92.21-59.3,87.06-202.44,166.3-307.1,176.01.24-.49.49-.98.7-1.44ZM132.9,569.81c-52.06,0-112.86-12.78-112.86-48.8,0-28.65,33.26-45.09,91.26-45.09,63.94,0,125.12,24.71,189.88,50.89l5.48,2.2c-51.14,27.45-108.08,40.8-173.76,40.8ZM1995.31,446.61c18.26-14.16,32.01-23.63,40.86-28.13,8.52-4.34,16.3-6.54,23.14-6.54,5.1,0,5.48,1.85,5.48,4.23,0,4.48-3.53,12.72-20.43,26.48-14.19,11.56-32.26,21.13-53.72,28.51-14.3,4.88-25.72,8.19-34.21,9.85,11.07-11.39,24.12-22.92,38.88-34.4ZM2176.64,187.1c-34.89,32.15-80.36,64.78-135.18,96.99-44.98,26.42-79.52,44.68-103.01,54.47,21.02-25.31,53.63-60.85,97.15-105.99,50.54-52.41,88.52-87.3,112.91-103.69,23.9-16.09,44.35-24.23,60.8-24.23,5.72,0,10.26,1.47,13.86,4.48,3.39,2.82,5.05,5.83,5.05,9.22,0,9.66-8.95,29.44-51.57,68.75Z"/>
  </g>
</svg>
